<?xml version="1.0" encoding="UTF-8" standalone="no"?><!DOCTYPE svg PUBLIC "-//W3C//DTD SVG 1.1//EN" "http://www.w3.org/Graphics/SVG/1.1/DTD/svg11.dtd"><svg width="100%" height="100%" viewBox="0 0 394 394" version="1.1" xmlns="http://www.w3.org/2000/svg" xmlns:xlink="http://www.w3.org/1999/xlink" xml:space="preserve" xmlns:serif="http://www.serif.com/" style="fill-rule:evenodd;clip-rule:evenodd;stroke-linejoin:round;stroke-miterlimit:2;"><g><path d="M364.778,19.759c2.466,-0 4.832,0.98 6.576,2.724c1.745,1.744 2.725,4.11 2.725,6.577l-0,335.718c-0,2.466 -0.98,4.832 -2.725,6.576c-1.744,1.745 -4.11,2.725 -6.576,2.725l-335.718,-0c-2.467,-0 -4.833,-0.98 -6.577,-2.725c-1.744,-1.744 -2.724,-4.11 -2.724,-6.576l-0,-335.718c-0,-2.467 0.98,-4.833 2.724,-6.577c1.744,-1.744 4.11,-2.724 6.577,-2.724l335.718,-0Z" style="fill:#fff;"/><path d="M364.778,8.799l3.971,0.393l3.782,1.149l3.487,1.862l3.087,2.53l2.53,3.086l1.862,3.487l1.149,3.783l0.393,3.971l-0,335.718l-0.393,3.971l-1.149,3.782l-1.862,3.487l-2.53,3.087l-3.087,2.53l-3.487,1.862l-3.782,1.149l-3.971,0.393l-335.718,-0l-3.971,-0.393l-3.783,-1.149l-3.487,-1.862l-3.086,-2.53l-2.53,-3.087l-1.862,-3.487l-1.149,-3.782l-0.393,-3.971l-0,-335.718l0.393,-3.971l1.149,-3.783l1.862,-3.487l2.53,-3.086l3.086,-2.53l3.487,-1.862l3.783,-1.149l3.971,-0.393l335.718,-0Zm-0,10.96l-335.718,-0c-2.467,-0 -4.833,0.98 -6.577,2.724c-1.744,1.744 -2.724,4.11 -2.724,6.577l-0,335.718c-0,2.466 0.98,4.832 2.724,6.576c1.744,1.745 4.11,2.725 6.577,2.725l335.718,-0c2.466,-0 4.832,-0.98 6.576,-2.725c1.745,-1.744 2.725,-4.11 2.725,-6.576l-0,-335.718c-0,-2.467 -0.98,-4.833 -2.725,-6.577c-1.744,-1.744 -4.11,-2.724 -6.576,-2.724Z" style="fill:#ce0731;"/><g><g><g><rect x="40.232" y="348.756" width="10.043" height="7.755" style="fill:#5aa9e6;"/><rect x="59.19" y="345.863" width="10.043" height="10.649" style="fill:#5aa9e6;"/><rect x="78.148" y="338.574" width="10.043" height="17.937" style="fill:#5aa9e6;"/><rect x="97.106" y="326.395" width="10.043" height="30.116" style="fill:#5aa9e6;"/><rect x="116.064" y="308.85" width="10.043" height="47.662" style="fill:#5aa9e6;"/><rect x="135.023" y="286.204" width="10.043" height="70.307" style="fill:#5aa9e6;"/><rect x="153.981" y="260.889" width="10.043" height="95.623" style="fill:#5aa9e6;"/><rect x="172.939" y="239.373" width="10.043" height="117.138" style="fill:#5aa9e6;"/><rect x="191.897" y="230.922" width="10.043" height="125.589" style="fill:#5aa9e6;"/><rect x="210.855" y="239.189" width="10.043" height="117.322" style="fill:#5aa9e6;"/><rect x="229.813" y="259.936" width="10.043" height="96.575" style="fill:#5aa9e6;"/><rect x="248.772" y="284.633" width="10.043" height="71.878" style="fill:#5aa9e6;"/><rect x="267.73" y="307.305" width="10.043" height="49.206" style="fill:#5aa9e6;"/><rect x="286.688" y="325.323" width="10.043" height="31.188" style="fill:#5aa9e6;"/><rect x="305.646" y="338.069" width="10.043" height="18.442" style="fill:#5aa9e6;"/><rect x="324.604" y="345.641" width="10.043" height="10.87" style="fill:#5aa9e6;"/><rect x="343.562" y="348.912" width="10.043" height="7.599" style="fill:#5aa9e6;"/></g><path d="M271.679,356.511l-35.456,0l-0,-10.196c-0.018,-4.723 -6.194,-7.563 -6.194,-7.563c0,0 -5.912,2.793 -5.884,7.563l0,10.196l-6.859,0l-0.038,-10.196c-0.002,-5.154 -6.139,-7.563 -6.139,-7.563c-0,0 -5.964,2.429 -5.939,7.563l0,10.196l-6.777,0l-0.12,-10.196c-0.02,-5.171 -6.314,-7.563 -6.314,-7.563c-0,0 -5.747,2.444 -5.763,7.563l0.225,10.196l-63.604,0l0,-62.818l6.821,0l11.396,-14.306l11.397,14.306l6.82,0l0,16.609l16.744,-16.408l63.796,-0l-0,-26.254l-2.828,-2.817l-0,-16.903l4.351,-14.085l4.68,14.085l0,-7.686l9.748,-25.415l9.899,25.415l-0,7.686l4.501,-14.085l4.174,14.085l0,16.903l-2.637,2.817l-0,88.871Z" style="fill:#ce0731;"/></g><g><g transform="matrix(0.872032,0,0,1,23.7157,-1.13687e-13)"><g transform="matrix(61.8,0,0,61.8,346.62,204.02)"></g><text x="218.343px" y="204.02px" style="font-family:'Sarina-Regular', 'Sarina';font-size:61.8px;fill:#f5b517;">gen</text></g><g><g transform="matrix(0.872032,0,0,1,11.4548,0)"><g transform="matrix(61.8,0,0,61.8,199.968,203.441)"></g><text x="169.188px" y="203.441px" style="font-family:'Sarina-Regular', 'Sarina';font-size:61.8px;fill:#f5b517;">t</text></g><path d="M130.331,180.727c0,-0 22.031,-20.559 24.372,-18.218c2.671,2.67 -19.86,26.234 -19.86,26.234c7.959,15.27 9.931,20.595 14.709,20.77c4.064,0.149 3.125,-3.268 5.151,-2.167c2.312,1.255 -4.788,19.141 -27.259,-11.637c-0,-0 -20.752,20.138 -23.351,17.539c-3.131,-3.131 18.667,-25.461 18.667,-25.461c-7.725,-15.742 -9.641,-21.477 -13.901,-21.518c-2.943,-0.028 -2.874,4.052 -4.895,2.652c-2.546,-1.764 6.474,-20.081 26.367,11.806Z" style="fill:#5aaae6;"/><g transform="matrix(0.5421,0,0,1,3.07112,0)"><g transform="matrix(61.8,0,0,61.8,191.695,204.14)"></g><text x="109.587px" y="204.14px" style="font-family:'Sarina-Regular', 'Sarina';font-size:61.8px;fill:#f5b517;">ne</text></g></g></g><g><path d="M279.57,101.437c-24.407,-0.359 -24.345,-21.784 -24.345,-21.784l-0,-21.527c-0,0 -0.1,-21.526 25.119,-21.526l15.455,-0c24.51,-0 24.345,21.526 24.345,21.526l-0.018,14.328l-24.35,0l0.023,-21.503c0,-0 0.025,-7.17 -8.115,-7.17c-8.139,-0 -8.016,7.17 -8.016,7.17l-0.098,28.702c-0,-0 -0.158,7.127 8.228,7.116l8.001,0.059c24.508,0 24.345,21.527 24.345,21.527l-0,21.526c-0,0 -0.013,21.527 -24.345,21.527l-16.229,-0c-24.377,-0.157 -24.345,-21.527 -24.345,-21.527l-0,-14.364l24.345,0.013l-0,21.527c-0,-0 -0.271,7.175 8.114,7.175c8.386,0 8.115,-7.175 8.115,-7.175l0,-28.702c0,-0 0.027,-6.817 -8.115,-6.817l-8.114,-0.101Z" style="fill:#ce0731;"/><path d="M213.149,94.004c24.6,0.467 24.344,21.526 24.344,21.526l0,14.351c0,0 0.238,21.523 -24.597,21.527l-48.437,-0l0,-7.463l7.644,0l0,-99.955l-7.644,0l0,-7.39l48.794,-0c24.034,-0 24.24,22.373 24.24,22.373l0,13.504c0,0 0.138,21.789 -24.344,21.527Zm-16.23,7.175l-0,43.053l8.115,0c8.067,-0.01 8.115,-7.175 8.115,-7.175l-0,-28.702c-0,-0 -0.048,-7.165 -8.115,-7.176l-8.115,0Zm0.069,-57.404l-0.069,43.053l8.115,0c8.067,-0.485 8.115,-7.175 8.115,-7.175l-0,-28.702c-0,-0 -0.06,-6.928 -8.115,-7.176l-8.046,0Z" style="fill:#ce0731;"/><path d="M122.383,94.004c24.6,0.467 24.344,21.526 24.344,21.526l0,14.351c0,0 0.238,21.523 -24.597,21.527l-48.436,-0l-0,-7.463l7.644,0l-0,-99.955l-7.644,0l-0,-7.39l48.794,-0c24.033,-0 24.239,22.373 24.239,22.373l0,13.504c0,0 0.138,21.789 -24.344,21.527Zm-16.23,7.175l0,43.053l8.115,0c8.067,-0.01 8.115,-7.175 8.115,-7.175l-0,-28.702c-0,-0 -0.048,-7.165 -8.115,-7.176l-8.115,0Zm0.069,-57.404l-0.069,43.053l8.115,0c8.067,-0.485 8.115,-7.175 8.115,-7.175l-0,-28.702c-0,-0 -0.06,-6.928 -8.115,-7.176l-8.046,0Z" style="fill:#ce0731;"/></g></g></g></svg>